HIERARCHY
ROOT Hips
{
    OFFSET 0.000000 0.000000 0.000000
    CHANNELS 6 Xposition Yposition Zposition Zrotation Xrotation Yrotation
    JOINT Spine
    {
        OFFSET -0.000000 14.517291 0.000000
        CHANNELS 3 Zrotation Xrotation Yrotation
        JOINT Spine1
        {
            OFFSET -0.000000 37.558300 0.000000
            CHANNELS 3 Zrotation Xrotation Yrotation
            JOINT Neck
            {
                OFFSET -0.000000 37.404057 3.400369
                CHANNELS 3 Zrotation Xrotation Yrotation
                JOINT Head
                {
                    OFFSET -0.000000 24.785618 -3.540803
                    CHANNELS 3 Zrotation Xrotation Yrotation
                    End Site
                    {
                        OFFSET -0.000000 35.408028 0.000000
                    }
                }
            }
            JOINT LeftShoulder
            {
                OFFSET 6.992933 33.973492 -0.192664
                CHANNELS 3 Zrotation Xrotation Yrotation
                JOINT LeftArm
                {
                    OFFSET 21.527611 0.000000 0.000000
                    CHANNELS 3 Zrotation Xrotation Yrotation
                    JOINT LeftForeArm
                    {
                        OFFSET 56.353916 0.000000 0.000000
                        CHANNELS 3 Zrotation Xrotation Yrotation
                        JOINT LeftHand
                        {
                            OFFSET 47.774071 0.000000 0.000000
                            CHANNELS 3 Zrotation Xrotation Yrotation
                            End Site
                            {
                                OFFSET 26.556021 0.000000 0.000000
                            }
                        }
                    }
                }
            }
            JOINT RightShoulder
            {
                OFFSET -7.065357 33.973492 -0.192664
                CHANNELS 3 Zrotation Xrotation Yrotation
                JOINT RightArm
                {
                    OFFSET -21.527611 0.000000 0.000000
                    CHANNELS 3 Zrotation Xrotation Yrotation
                    JOINT RightForeArm
                    {
                        OFFSET -56.353916 0.000000 0.000000
                        CHANNELS 3 Zrotation Xrotation Yrotation
                        JOINT RightHand
                        {
                            OFFSET -47.774071 0.000000 0.000000
                            CHANNELS 3 Zrotation Xrotation Yrotation
                            End Site
                            {
                                OFFSET -26.556021 0.000000 0.000000
                            }
                        }
                    }
                }
            }
        }
    }
    JOINT LeftUpLeg
    {
        OFFSET 17.704014 0.000000 0.000000
        CHANNELS 3 Zrotation Xrotation Yrotation
        JOINT LeftLeg
        {
            OFFSET -0.000000 -81.181816 0.000000
            CHANNELS 3 Zrotation Xrotation Yrotation
            JOINT LeftFoot
            {
                OFFSET -0.000000 -62.821102 0.000000
                CHANNELS 3 Zrotation Xrotation Yrotation
                JOINT LeftToeBase
                {
                    OFFSET -0.000000 -11.507608 26.556021
                    CHANNELS 3 Zrotation Xrotation Yrotation
                    End Site
                    {
                        OFFSET -0.000000 0.000000 7.081605
                    }
                }
            }
        }
    }
    JOINT RightUpLeg
    {
        OFFSET -17.704014 0.000000 0.000000
        CHANNELS 3 Zrotation Xrotation Yrotation
        JOINT RightLeg
        {
            OFFSET -0.000000 -81.181816 0.000000
            CHANNELS 3 Zrotation Xrotation Yrotation
            JOINT RightFoot
            {
                OFFSET -0.000000 -62.821102 0.000000
                CHANNELS 3 Zrotation Xrotation Yrotation
                JOINT RightToeBase
                {
                    OFFSET -0.000000 -11.507608 26.556021
                    CHANNELS 3 Zrotation Xrotation Yrotation
                    End Site
                    {
                        OFFSET -0.000000 0.000000 7.081605
                    }
                }
            }
        }
    }
}
MOTION
Frames:    11
Frame Time:    0.008333
-20.145542    166.472183    -26.813253    -11.572620    -7.773428    39.618271    1.196379    1.539789    -4.772206    10.793870    12.566400    -2.778385    41.064434    19.150587    -1.506294    -19.149273    -28.242216    -7.734115    17.489758    10.830474    -27.272284    -29.892862    17.417656    -64.425369    8.790145    -42.309204    -96.067551    -10.660156    -33.408821    -15.778536    15.204435    6.145895    -7.528302    21.773462    -5.391813    28.701189    -26.644238    -15.314589    63.841267    -8.329588    -0.639815    29.114740    14.170686    -11.294553    8.216599    -3.970907    29.087526    -16.537197    7.687257    -11.807623    33.042274    0.000000    0.000000    0.000000    -113.220322    -48.774052    -72.395233    3.857500    19.823502    -6.250651    12.478516    27.941044    -18.018438    0.000000    0.000000    0.000000    
-20.203003    166.483444    -26.760635    -11.554318    -7.972188    39.684193    1.204460    1.609506    -4.806535    10.664007    12.486285    -2.767727    40.657497    18.948816    -1.432429    -18.745277    -28.153557    -7.580624    17.336531    10.729978    -27.189907    -29.798397    17.408215    -64.462090    8.891139    -42.472687    -96.099770    -10.700208    -33.484001    -15.843043    15.094709    6.065165    -7.502743    21.815660    -5.477078    28.712070    -26.544516    -15.220631    63.929729    -8.331913    -0.569724    28.977036    14.301110    -11.149389    8.193990    -3.953625    29.080982    -16.566885    7.688879    -11.841894    33.016171    0.000000    0.000000    0.000000    -112.921249    -48.794048    -72.137398    3.851918    19.889940    -5.937781    12.654268    27.748924    -18.331865    0.000000    0.000000    0.000000    
-20.260683    166.489883    -26.702700    -11.539570    -8.175296    39.747303    1.224820    1.673741    -4.834805    10.504114    12.387781    -2.750145    40.321732    18.762880    -1.383268    -18.403366    -28.050085    -7.465086    17.232983    10.669607    -27.147917    -29.728271    17.347767    -64.489525    8.992529    -42.619831    -96.140411    -10.761534    -33.535465    -15.924046    14.955733    5.965689    -7.486110    21.932514    -5.518404    28.699373    -26.372061    -15.219006    64.113426    -8.176728    -0.567248    28.776911    14.432163    -11.004704    8.188923    -3.907966    29.085506    -16.610001    7.697015    -11.889872    32.972668    0.000000    0.000000    0.000000    -112.592407    -48.808384    -71.860878    3.847934    19.905081    -6.029548    12.631392    27.689177    -18.209446    0.000000    0.000000    0.000000    
-20.319807    166.497650    -26.639620    -11.526810    -8.383520    39.807373    1.221907    1.734100    -4.846365    10.404392    12.316665    -2.736476    39.922443    18.493580    -1.308457    -18.025768    -27.887550    -7.334028    17.074501    10.525620    -27.167143    -29.879009    17.178833    -64.359192    8.828012    -42.462624    -96.446167    -10.583379    -33.496838    -15.821407    14.816806    5.880020    -7.520198    22.003731    -5.558808    28.753590    -26.384596    -15.086791    64.121208    -8.358928    -0.468303    28.802877    14.576470    -10.869351    8.367537    -3.776758    29.132994    -16.845938    7.701612    -11.944326    32.923000    0.000000    0.000000    0.000000    -111.941315    -48.007969    -70.002243    5.829888    19.001259    -5.513452    12.998269    26.976553    -20.317856    0.000000    0.000000    0.000000    
-20.380840    166.502808    -26.576931    -11.521904    -8.589043    39.864254    1.273188    1.788596    -4.879496    10.158698    12.218537    -2.711578    39.665131    18.263258    -1.254503    -17.729776    -27.704033    -7.233181    17.011917    10.478345    -27.073322    -29.787693    17.119761    -64.443283    8.932514    -42.608994    -96.481773    -10.671253    -33.544399    -15.866264    14.752863    5.788339    -7.511624    22.047497    -5.484738    28.774462    -26.298655    -15.224547    64.193848    -8.177919    -0.579575    28.560883    14.717111    -10.730636    8.376851    -3.720846    29.142323    -16.895475    7.690238    -12.011361    32.885319    0.000000    0.000000    0.000000    -111.686806    -48.003773    -69.585587    5.985386    19.062181    -5.851798    12.899349    26.925034    -20.177767    0.000000    0.000000    0.000000    
-20.449839    166.505142    -26.515726    -11.532921    -8.779210    39.914734    1.269940    1.819301    -4.891409    10.072481    12.150824    -2.700215    39.228867    17.970781    -1.200400    -17.356804    -27.508615    -7.128282    16.827217    10.400609    -26.951538    -29.683737    17.070396    -64.540154    9.014046    -42.724136    -96.531105    -10.741495    -33.574001    -15.967396    14.538494    5.657353    -7.524520    22.183254    -5.395689    28.791124    -26.439505    -15.212483    64.198799    -8.222886    -0.490826    28.678680    14.870173    -10.617362    8.376059    -3.688850    29.155787    -16.903372    7.706470    -12.063616    32.820683    0.000000    0.000000    0.000000    -111.418739    -48.016129    -69.324066    6.028351    19.108809    -5.886305    12.904836    26.843998    -20.173609    0.000000    0.000000    0.000000    
-20.518482    166.522003    -26.436815    -11.541002    -9.031332    39.963688    1.328099    1.886654    -4.913908    9.878457    12.070496    -2.679397    38.984844    17.706425    -1.134352    -17.133173    -27.282639    -7.047878    16.727468    10.340372    -26.893732    -29.800838    16.860144    -64.520348    8.956007    -42.561974    -96.679634    -10.820464    -33.402966    -16.101374    14.435685    5.575942    -7.533342    22.257427    -5.351939    28.844717    -26.346352    -15.335432    64.294060    -8.077114    -0.594339    28.444645    15.073087    -10.450028    8.352038    -3.676193    29.174572    -16.949419    7.717922    -12.121076    32.808041    0.000000    0.000000    0.000000    -111.052612    -48.051819    -69.014053    6.064423    19.168602    -5.897354    12.908049    26.723003    -20.172724    0.000000    0.000000    0.000000    
-20.593527    166.544479    -26.357639    -11.562172    -9.287016    40.013874    1.389148    1.963537    -4.922163    9.692384    12.051328    -2.660198    38.675495    17.240915    -1.010500    -16.849815    -26.949753    -6.946709    16.653400    10.183823    -26.716597    -29.879896    16.761227    -64.625137    8.927894    -42.447906    -96.862068    -10.751753    -33.285328    -16.053911    14.347864    5.389870    -7.615067    22.338903    -5.317041    28.934000    -26.387280    -15.240916    64.291885    -8.126337    -0.492530    28.587067    15.296256    -10.293686    8.317749    -3.684733    29.193861    -16.964491    7.708695    -12.181412    32.788429    0.000000    0.000000    0.000000    -110.680313    -48.089085    -68.714737    6.092468    19.235090    -5.944160    12.892040    26.606953    -20.114275    0.000000    0.000000    0.000000    
-20.667442    166.567780    -26.290249    -11.595560    -9.506752    40.053162    1.450587    2.027981    -4.939950    9.495356    11.892026    -2.631244    38.361996    17.066597    -1.015400    -16.541948    -26.831408    -6.888453    16.537727    10.155326    -26.664328    -29.874317    16.643368    -64.636147    8.959452    -42.448807    -96.968849    -10.814708    -33.227837    -16.113167    14.225304    5.312951    -7.629109    22.442123    -5.274208    28.965588    -26.278219    -15.348744    64.442871    -8.032446    -0.586891    28.362690    15.499442    -10.172605    8.299695    -3.673569    29.213837    -17.010292    7.689397    -12.230883    32.783550    0.000000    0.000000    0.000000    -110.362785    -48.123020    -68.471321    6.112494    19.299706    -5.947007    12.924904    26.492819    -20.101107    0.000000    0.000000    0.000000    
-20.739500    166.591553    -26.221714    -11.629105    -9.723146    40.099499    1.485039    2.086987    -4.957528    9.358018    11.774151    -2.612603    37.986431    16.699995    -0.932898    -16.192270    -26.503677    -6.766720    16.367922    10.069950    -26.556068    -29.982105    16.500587    -64.644409    8.837865    -42.259663    -97.195198    -10.807223    -33.094456    -16.149181    14.072787    5.211072    -7.672255    22.566511    -5.289068    29.017559    -26.099463    -15.417229    64.677818    -7.905571    -0.647123    28.063154    15.700647    -10.051818    8.270202    -3.676596    29.231323    -17.040562    7.458680    -12.357172    32.816601    0.000000    0.000000    0.000000    -110.054176    -48.150776    -68.246529    6.133400    19.372524    -5.952214    12.955326    26.376143    -20.085770    0.000000    0.000000    0.000000    
-20.812983    166.620132    -26.157290    -11.667738    -9.934422    40.128281    1.527252    2.123139    -4.973064    9.189716    11.599655    -2.585725    37.610611    16.618975    -0.968396    -15.797789    -26.449303    -6.681072    16.194992    10.052532    -26.565079    -30.014488    16.360130    -64.569466    8.729452    -42.194912    -97.405525    -10.812197    -33.093830    -16.151047    13.952677    5.175262    -7.644351    22.639156    -5.209516    29.025766    -26.379803    -15.278265    64.492935    -8.260363    -0.486012    28.365068    15.904898    -9.936247    8.252370    -3.672200    29.245201    -17.066397    7.430551    -12.402439    32.800079    0.000000    0.000000    0.000000    -109.758408    -48.193043    -68.042480    6.165308    19.431974    -5.962290    12.827869    26.366949    -19.980009    0.000000    0.000000    0.000000    
